# xmcd
#
# Track frame offsets: 
#        150
#        15615
#        29401
#        44579
#        54135
#        65519
#        77699
#        91925
#        103609
#        113808
#        126917
#        141766
#        154318
#        167044
#        181023
#        194963
#        208989
#        221738
#        236248
#        249468
#        261514
#
# Disc length: 3686 seconds
#
# Revision: 0
# Processed by: cddbd v1.5.2PL0 Copyright (c) Steve Scherf et al.
# Submitted via: ExactAudioCopy v0.99pb5
#
DISCID=3a0e6415
DTITLE=Muddy Waters - Country Blues (Reborn and Remastered Disc 1)
DYEAR=2010
DGENRE=Blues
TTITLE0=Country Blues, Number One
TTITLE1=Take A Walk With Me
TTITLE2=I Be Bound To Write To You
TTITLE3=You Got To Take Sick And Die Some Of These Days
TTITLE4=Burying Ground Blues
TTITLE5=I Can't Be Satisfied
TTITLE6=I Feel Like Going Home
TTITLE7=You Gonna Miss Me
TTITLE8=Mean Red Spider
TTITLE9=Louisiana Blues
TTITLE10=Streamline Woamn
TTITLE11=Train Fare Home
TTITLE12=Hello Little Girl (Appealing Blues)
TTITLE13=Screamin' And Cryin'
TTITLE14=You're Gonna Need My Help
TTITLE15=Rollin' Stone
TTITLE16=Rollin' And Tumblin' (Part One)
TTITLE17=Rollin' And Tumblin' (Part Two)
TTITLE18=Walkin' Blues
TTITLE19=Long Distance Call
TTITLE20=Honey Bee
EXTD=
EXTT0=
EXTT1=
EXTT2=
EXTT3=
EXTT4=
EXTT5=
EXTT6=
EXTT7=
EXTT8=
EXTT9=
EXTT10=
EXTT11=
EXTT12=
EXTT13=
EXTT14=
EXTT15=
EXTT16=
EXTT17=
EXTT18=
EXTT19=
EXTT20=
PLAYORDER=
